<svg width="35px" height="35px" viewBox="0 0 35 35" version="1.1" xmlns="http://www.w3.org/2000/svg"
     xmlns:xlink="http://www.w3.org/1999/xlink">
    <!-- Generator: Sketch 48.2 (47327) - http://www.bohemiancoding.com/sketch -->
    <desc>Created with Sketch.</desc>
    <defs></defs>
    <g id="Page-1" stroke="none" stroke-width="1" fill="none" fill-rule="evenodd">
        <g id="Browse" transform="translate(-1131.000000, -1399.000000)" fill="#FFFFFF">
            <g id="Albums" transform="translate(-3.000000, -14.000000)">
                <g id="main-kit" transform="translate(3.000000, 0.000000)">
                    <g id="player" transform="translate(0.000000, 1301.000000)">
                        <g id="controls" transform="translate(860.000000, 71.000000)">
                            <g id="fast-forward" transform="translate(249.000000, 19.000000)">
                                <g id="Group-2" transform="translate(22.000000, 22.000000)">
                                    <g id="15-fast"
                                       transform="translate(17.500000, 17.500000) scale(-1, 1) translate(-17.500000, -17.500000) "
                                       fill-rule="nonzero">
                                        <path d="M17.2879581,35 C10.3455497,35 4.02617801,30.9547739 1.17801047,24.798995 L3.4921466,23.7437186 C5.98429319,29.0201005 11.4136126,32.4497487 17.2879581,32.4497487 C25.6544503,32.4497487 32.4188482,25.7663317 32.4188482,17.5 C32.4188482,9.23366834 25.6544503,2.55025126 17.2879581,2.55025126 C10.9685864,2.55025126 5.62827225,6.41959799 3.40314136,12.5753769 L1,11.6959799 C3.58115183,4.57286432 9.90052356,0 17.2879581,0 C27.078534,0 35,7.82663317 35,17.5 C35,27.1733668 26.9895288,35 17.2879581,35"
                                              id="Fill-83"></path>
                                        <polyline id="Fill-84"
                                                  points="11 14 0 14 0 3 2.75 3 2.75 11.2276423 11 11.2276423 11 14"></polyline>
                                    </g>
                                    <path d="M9,14 L12.278,14 L12.278,21.711 L10.54,21.711 L10.54,15.474 L9,15.474 L9,14 Z M17.217,16.805 L18.086,16.805 C19.868,16.805 21.023,17.762 21.023,19.137 C21.023,20.732 19.813,21.777 17.943,21.777 C16.942,21.777 15.787,21.403 14.973,20.842 L15.677,19.467 C16.293,20.061 17.03,20.38 17.745,20.38 C18.647,20.38 19.164,19.962 19.164,19.247 C19.164,18.598 18.647,18.213 17.756,18.213 C17.316,18.213 16.128,18.235 15.622,18.279 L15.622,14 L20.682,14 L20.682,15.452 L17.217,15.452 L17.217,16.805 Z"
                                          id="15"></path>
                                </g>
                            </g>
                        </g>
                    </g>
                </g>
            </g>
        </g>
    </g>
</svg>