<svg width="35px" height="35px" viewBox="0 0 35 35" version="1.1" xmlns="http://www.w3.org/2000/svg"
     xmlns:xlink="http://www.w3.org/1999/xlink">

    <g id="Page-1" stroke="none" stroke-width="1" fill="none" fill-rule="evenodd">
        <g id="Learn" transform="translate(-882.000000, -1399.000000)" fill="#FFFFFF">
            <g id="player" transform="translate(0.000000, 1287.000000)">
                <g id="controls" transform="translate(860.000000, 71.000000)">
                    <g id="rewind" transform="translate(0.000000, 19.000000)">
                        <g id="Group-2" transform="translate(22.000000, 22.000000)">
                            <g id="15-rewind" fill-rule="nonzero">
                                <path d="M17.5875,34.9125 C10.7625,34.9125 4.55,30.8875 1.75,24.7625 L4.025,23.7125 C6.475,28.9625 11.8125,32.375 17.5875,32.375 C25.8125,32.375 32.4625,25.725 32.4625,17.5 C32.4625,9.275 25.8125,2.625 17.5875,2.625 C11.375,2.625 6.125,6.475 3.9375,12.6 L1.575,11.725 C4.1125,4.6375 10.325,0.0875 17.5875,0.0875 C27.2125,0.0875 35,7.875 35,17.5 C35,27.125 27.125,34.9125 17.5875,34.9125"
                                      id="Fill-83"></path>
                                <polyline id="Fill-84"
                                          points="10.85 13.475 0 13.475 0 2.7125 2.7125 2.7125 2.7125 10.7625 10.85 10.7625 10.85 13.475"></polyline>
                            </g>
                            <path d="M14,14 L17.278,14 L17.278,21.711 L15.54,21.711 L15.54,15.474 L14,15.474 L14,14 Z M22.217,16.805 L23.086,16.805 C24.868,16.805 26.023,17.762 26.023,19.137 C26.023,20.732 24.813,21.777 22.943,21.777 C21.942,21.777 20.787,21.403 19.973,20.842 L20.677,19.467 C21.293,20.061 22.03,20.38 22.745,20.38 C23.647,20.38 24.164,19.962 24.164,19.247 C24.164,18.598 23.647,18.213 22.756,18.213 C22.316,18.213 21.128,18.235 20.622,18.279 L20.622,14 L25.682,14 L25.682,15.452 L22.217,15.452 L22.217,16.805 Z"
                                  id="15"></path>
                        </g>
                    </g>
                </g>
            </g>
        </g>
    </g>
</svg>