<svg width="131px" height="130px" viewBox="0 0 131 130" version="1.1" xmlns="http://www.w3.org/2000/svg"
     xmlns:xlink="http://www.w3.org/1999/xlink">

    <g id="Page-1" stroke="none" stroke-width="1" fill="none" fill-rule="evenodd">
        <g id="Learn" transform="translate(-646.000000, -1108.000000)">
            <g id="reddit" transform="translate(647.000000, 1109.000000)">
                <rect id="Rectangle-path" x="18" y="11" width="94" height="106"></rect>
                <ellipse id="Oval" stroke="#FFFFFF" fill="#FFFFFF" cx="64.5" cy="64" rx="64.5" ry="64"></ellipse>
                <path d="M106,63.1838338 C106,57.193865 101.633594,52.3225177 96.2648125,52.3225177 C93.941125,52.3225177 91.8072813,53.2373649 90.1315938,54.7599726 C84.1958125,50.5975606 76.6628125,48.0895685 68.588125,47.5587576 L72.800125,32.7017541 L84.3755313,35.7434071 C84.6792813,40.4451799 88.2027813,44.1672682 92.49325,44.1672682 C96.9811563,44.1672682 100.63375,40.0924935 100.63375,35.0822091 C100.63375,30.0754873 96.9811563,26 92.49325,26 C89.3545,26 86.6258125,27.9935688 85.2665313,30.9055472 L71.8154688,27.3722707 C70.6890625,27.0758716 69.55,27.7990569 69.2006875,29.030253 L63.971125,47.4711204 C55.2712188,47.7083822 47.09275,50.2242118 40.7215937,54.630298 C39.0686875,53.18749 36.9905313,52.3232302 34.7351875,52.3232302 C29.3664063,52.3225177 25,57.193865 25,63.1838338 C25,66.8859722 26.670625,70.159187 29.2145313,72.1192684 C29.1082187,72.9806782 29.0525313,73.847788 29.0525313,74.7255852 C29.0525313,82.2117993 32.9531875,89.1757526 40.035625,94.3328115 C46.8244375,99.277546 55.810375,102 65.3354687,102 C74.8605625,102 83.8465,99.277546 90.6353125,94.3328115 C97.71775,89.1764651 101.618406,82.2125118 101.618406,74.7255852 C101.618406,73.9261627 101.570312,73.1331527 101.481719,72.3451302 C104.195219,70.4156862 106,67.0298968 106,63.1838338 M92.5,31 C94.4298843,31 96,32.795189 96,34.9986254 C96,37.204811 94.4298843,39 92.5,39 C90.5701157,39 89,37.204811 89,34.9986254 C89,32.795189 90.5701157,31 92.5,31 M48,70.0440539 C48,66.7583974 50.5281852,64 53.54033,64 C56.5549954,64 59,66.7577036 59,70.0440539 C59,73.3324854 56.5549954,76 53.54033,76 C50.5281852,76 48,73.3324854 48,70.0440539 M79.3518431,88.2685139 C76.5285905,91.4519467 72.1745978,93 66.0414998,93 C66.0288281,93 66.0136221,92.9971132 65.998416,92.9971132 C65.9857443,92.9971132 65.9705383,93 65.9553323,93 C59.8222343,93 55.4707759,91.4526684 52.6500577,88.2685139 C51.7833141,87.2898844 51.7833141,85.7086327 52.6500577,84.73289 C53.514267,83.7571473 54.9157559,83.7571473 55.7824995,84.73289 C57.7288711,86.9297545 61.0564569,87.9993186 65.9553323,87.9993186 C65.9705383,87.9993186 65.9857443,88.0022054 65.998416,88.0022054 C66.0136221,88.0022054 66.0288281,87.9993186 66.0414998,87.9993186 C70.9403752,87.9993186 74.2704953,86.9297545 76.2194013,84.73289 C77.0861449,83.7542605 78.4876338,83.7571473 79.3518431,84.73289 C80.2160523,85.7107978 80.2160523,87.2927712 79.3518431,88.2685139 M77.5440806,76 C74.5314861,76 72,73.3324854 72,70.0440539 C72,66.7556224 74.5314861,64 77.5440806,64 C80.5566751,64 83,66.7549286 83,70.0440539 C83,73.3324854 80.5566751,76 77.5440806,76"
                      id="Reddit_1_" fill="#FF5700"></path>
            </g>
        </g>
    </g>
</svg>