<svg width="131px" height="130px" viewBox="0 0 131 130" version="1.1" xmlns="http://www.w3.org/2000/svg" xmlns:xlink="http://www.w3.org/1999/xlink">
    <defs></defs>
    <g id="Page-1" stroke="none" stroke-width="1" fill="none" fill-rule="evenodd">
        <g id="Learn" transform="translate(-805.000000, -1108.000000)">
            <g id="twitter" transform="translate(806.000000, 1109.000000)">
                <rect id="Rectangle-path" x="29" y="27" width="74" height="74"></rect>
                <ellipse id="Oval" stroke="#FFFFFF" fill="#FFFFFF" cx="64.5" cy="64" rx="64.5" ry="64"></ellipse>
                <path d="M102,40.3394896 C99.2811206,41.5845349 96.3535414,42.4261902 93.2825893,42.8022613 C96.4182903,40.8678492 98.8249871,37.7999925 99.9586725,34.1462322 C97.0224215,35.9376559 93.7780347,37.2408265 90.3116514,37.9394934 C87.5494133,34.8989556 83.6008812,33 79.2314808,33 C70.852846,33 64.0553585,40.0081751 64.0553585,48.6514166 C64.0553585,49.878443 64.1854346,51.0694317 64.4461649,52.2162451 C51.829362,51.5617535 40.6451305,45.3371084 33.1521695,35.8568616 C31.8450493,38.1766449 31.0975454,40.8678492 31.0975454,43.7340108 C31.0975454,49.1617573 33.777691,53.953031 37.8516742,56.7610673 C35.3675099,56.684923 33.0215153,55.9728873 30.9715161,54.8086363 L30.9715161,55.0010313 C30.9715161,62.5869724 36.2051999,68.9144995 43.154732,70.3478709 C41.8822987,70.7152232 40.5399134,70.8988994 39.1541695,70.8988994 C38.1771535,70.8988994 37.2215278,70.8047363 36.2959641,70.6210601 C38.2286058,76.8369865 43.8317058,81.364371 50.4771488,81.4852718 C45.2821987,85.6859918 38.7327229,88.1888699 31.6224746,88.1888699 C30.3974469,88.1888699 29.1857158,88.1173757 28,87.9738061 C34.7194419,92.4070275 42.7026453,95 51.2720582,95 C79.2002625,95 94.467149,71.1534885 94.467149,50.4689967 C94.467149,49.7883487 94.4538523,49.1077007 94.4278371,48.4404215 C97.3958844,46.2328202 99.9713911,43.4788405 102,40.3394896" id="Twitter_1_" fill="#00AAEC"></path>
            </g>
        </g>
    </g>
</svg>