
<svg width="44px" height="44px" viewBox="0 0 44 44" version="1.1" xmlns="http://www.w3.org/2000/svg" xmlns:xlink="http://www.w3.org/1999/xlink">
    <!-- Generator: Sketch 48.2 (47327) - http://www.bohemiancoding.com/sketch -->
    <desc>Created with Sketch.</desc>
    <defs></defs>
    <g id="Page-1" stroke="none" stroke-width="1" fill="none" fill-rule="evenodd">
        <g id="Browse" transform="translate(-101.000000, -423.000000)" fill="#FFFFFF">
            <g id="Albums" transform="translate(-3.000000, -14.000000)">
                <g id="main-kit" transform="translate(3.000000, 0.000000)">
                    <g id="side-options" transform="translate(0.000000, 11.000000)">
                        <g id="discover" transform="translate(43.000000, 403.000000)">
                            <path d="M82.7311289,48.1441875 C82.668467,48.3135685 82.5241976,48.471448 82.304462,48.55212 C81.940188,48.686164 74.63709,51.339996 74.013284,51.566224 C73.603654,51.714804 73.29688,51.398416 73.440538,50.993294 C73.600572,50.541758 76.261718,43.208024 76.461312,42.683946 C76.5342316,42.4918164 76.6904609,42.3416924 76.8623082,42.2734567 C76.8996518,42.1833687 76.9549544,42.0989589 77.028216,42.025686 C77.1014878,41.952369 77.1859225,41.8970299 77.2760463,41.8596687 C77.3442645,41.6878405 77.4942888,41.5316425 77.686292,41.45869 C78.210462,41.258958 85.544334,38.59795 85.9961,38.437916 C86.40113,38.294442 86.717288,38.601262 86.568846,39.010846 C86.342756,39.634606 83.688832,46.937612 83.554788,47.301886 C83.4740545,47.5217124 83.3160703,47.66603 83.1466244,47.7286833 C83.109275,47.8192823 83.0538008,47.9041772 82.980202,47.97781 C82.9065935,48.0513959 82.8217192,48.106855 82.7311289,48.1441875 Z M80,23.00004 C92.150256,23.00004 102.000006,32.849744 102.000006,44.999954 C102.000006,57.150302 92.150256,67.000006 80,67.000006 C67.849744,67.000006 57.999994,57.150302 57.999994,44.999954 C57.999994,32.849744 67.849744,23.00004 80,23.00004 Z M80,27.406288 C70.28319,27.406288 62.406242,35.28319 62.406242,44.999954 C62.406242,54.716718 70.28319,62.593758 80,62.593758 C89.71681,62.593758 97.593758,54.716718 97.593758,44.999954 C97.593758,35.28319 89.71681,27.406288 80,27.406288 Z" id="icon"></path>
                        </g>
                    </g>
                </g>
            </g>
        </g>
    </g>
</svg>