
<svg width="38px" height="21px" viewBox="0 0 38 21" version="1.1" xmlns="http://www.w3.org/2000/svg" xmlns:xlink="http://www.w3.org/1999/xlink">

    <g id="Page-1" stroke="none" stroke-width="1" fill="none" fill-rule="evenodd">
        <g id="Browse" transform="translate(-104.000000, -605.000000)" fill="#FFFFFF">
            <g id="Albums" transform="translate(-3.000000, -14.000000)">
                <g id="main-kit" transform="translate(3.000000, 0.000000)">
                    <g id="side-options" transform="translate(0.000000, 11.000000)">
                        <g id="songs" transform="translate(58.000000, 572.000000)">
                            <path d="M67.8319445,56.2570228 C66.989616,56.7893476 65.8847913,56.5549194 65.3118266,55.7002122 L55.7402335,41.4225643 L50.3140313,49.5165721 C49.7164199,50.4080455 48.5401676,50.6247281 47.6866932,50.0006327 C46.8333383,49.3763238 46.625898,48.1478703 47.2234297,47.2563969 L53.7155344,37.5721719 C54.0411024,37.0866554 54.5384273,36.8013309 55.0617252,36.7430743 C55.9041002,36.2106553 57.009165,36.4450241 57.5822139,37.2997885 L67.1538455,51.5774309 L72.5800091,43.4832625 C72.964488,42.9098927 73.5884563,42.6157183 74.2118932,42.6450039 C74.9566334,42.4424222 75.775643,42.730198 76.2429148,43.4295544 L82.7720439,53.2009839 C83.3731227,54.1003094 83.1644867,55.3400312 82.3061103,55.9697963 C81.4478932,56.5995377 80.2648258,56.3809335 79.6638667,55.481608 L74.4117483,47.6214839 L69.1785061,55.4276627 C68.8528456,55.9134139 68.3553654,56.1988228 67.8319445,56.2570228 Z" id="activity" transform="translate(64.998757, 46.500006) scale(-1, 1) translate(-64.998757, -46.500006) "></path>
                        </g>
                    </g>
                </g>
            </g>
        </g>
    </g>
</svg>