
<svg width="38px" height="40px" viewBox="0 0 38 40" version="1.1" xmlns="http://www.w3.org/2000/svg" xmlns:xlink="http://www.w3.org/1999/xlink">
    <!-- Generator: Sketch 48.2 (47327) - http://www.bohemiancoding.com/sketch -->
    <desc>Created with Sketch.</desc>
    <defs></defs>
    <g id="Page-1" stroke="none" stroke-width="1" fill="none" fill-rule="evenodd">
        <g id="Browse" transform="translate(-104.000000, -256.000000)" fill="#FFFFFF">
            <g id="Albums" transform="translate(-3.000000, -14.000000)">
                <g id="main-kit" transform="translate(3.000000, 0.000000)">
                    <g id="side-options" transform="translate(0.000000, 11.000000)">
                        <g id="listen-now" transform="translate(48.000000, 233.000000)">
                            <path d="M89.25,57.5676865 L89.25,45.000066 C89.25,37.129991 82.87,30.750038 75,30.750038 C67.13,30.750038 60.75,37.129991 60.75,45.000066 L60.75,57.5676865 C60.6357567,57.43825 60.5232494,57.3072451 60.4125146,57.1747081 C60.0536431,57.7101028 59.4429912,58.06252 58.75,58.06252 L58,58.06252 C56.8954,58.06252 56,57.167131 56,56.062547 L56,45.812465 C56,45.7454697 56.0032941,45.679244 56.0097293,45.6139408 C56.0032594,45.4101097 56,45.2054685 56,45.000066 C56,34.506647 64.5066,26 75,26 C85.4934,26 94,34.506647 94,45.000066 C94,45.2054685 93.9967406,45.4101097 93.9902707,45.6139408 C93.9967059,45.679244 94,45.7454697 94,45.812465 L94,56.062547 C94,57.167131 93.1046,58.06252 92,58.06252 L91.25,58.06252 C90.5570088,58.06252 89.9463569,57.7101028 89.5874854,57.1747081 C89.4767506,57.3072451 89.3642433,57.43825 89.25,57.5676865 Z M67.5,46.187468 L68.25,46.187468 C69.3546,46.187468 70.25,47.082943 70.25,48.187527 L70.25,63.187561 C70.25,64.292145 69.3546,65.187534 68.25,65.187534 L67.5,65.187534 C66.3954,65.187534 65.5,64.292145 65.5,63.187561 L65.5,48.187527 C65.5,47.082943 66.3954,46.187468 67.5,46.187468 Z M81.75,46.187468 L82.5,46.187468 C83.6046,46.187468 84.5,47.082943 84.5,48.187527 L84.5,63.187561 C84.5,64.292145 83.6046,65.187534 82.5,65.187534 L81.75,65.187534 C80.6454,65.187534 79.75,64.292145 79.75,63.187561 L79.75,48.187527 C79.75,47.082943 80.6454,46.187468 81.75,46.187468 Z" id="icon"></path>
                        </g>
                    </g>
                </g>
            </g>
        </g>
    </g>
</svg>