<svg width="36px" height="36px" viewBox="0 0 36 36" version="1.1" xmlns="http://www.w3.org/2000/svg"
     xmlns:xlink="http://www.w3.org/1999/xlink">

    <g id="Page-1" stroke="none" stroke-width="1" fill="none" fill-rule="evenodd">
        <g id="Browse" transform="translate(-50.000000, -88.000000)" fill="#888888">
            <g id="Albums" transform="translate(-3.000000, -14.000000)">
                <g id="main-kit" transform="translate(3.000000, 0.000000)">
                    <g id="top-bar">
                        <g id="search-bar-copy" transform="translate(50.000000, 78.000000)">
                            <path d="M11.6686646,51.1069598 L2.77929,59.996268 L0.003922,57.220596 L8.89805377,48.3265971 C6.94321648,45.7773878 5.781252,42.5870243 5.781252,39.124996 C5.781252,30.771722 12.545898,24.000046 20.890622,24.000046 C29.235346,24.000046 35.999992,30.771722 35.999992,39.124996 C35.999992,47.47827 29.235346,54.249984 20.890622,54.249984 C17.4186219,54.249984 14.2201576,53.0776966 11.6686646,51.1069598 Z M20.890622,28.312514 C14.927738,28.312514 10.093758,33.146418 10.093758,39.10934 C10.093758,45.072376 14.927738,49.906242 20.890622,49.906242 C26.853506,49.906242 31.687486,45.072376 31.687486,39.10934 C31.687486,33.146418 26.853506,28.312514 20.890622,28.312514 Z"
                                  id="icon"></path>
                        </g>
                    </g>
                </g>
            </g>
        </g>
    </g>
</svg>